# xmcd
#
# Track frame offsets: 
#        150
#        97541
#        141729
#        165628
#        187118
#        223365
#        231392
#        253589
#        273156
#        287019
#
# Disc length: 3938 seconds
#
# Revision: 5
# Processed by: cddbd v1.5.2PL0 Copyright (c) Steve Scherf et al.
# Submitted via: ExactAudioCopyFreeDBPlugin 1.0
#
DISCID=9a0f600a
DTITLE=Markus Becker - Piano Concertos
DYEAR=2004
DGENRE=Classical
TTITLE0=Markus Becker, NDRRP, Eiji Oue - Piano Concerto No.1
TTITLE1=Markus Becker, NDRRP, Eiji Oue - Piano Concerto No.2 - 1. Mode
TTITLE1=rato
TTITLE2=Markus Becker, NDRRP, Eiji Oue - Piano Concerto No.2 - 2. Larg
TTITLE2=o
TTITLE3=Markus Becker, NDRRP, Eiji Oue - Piano Concerto No.2 - 3. Alle
TTITLE3=gro
TTITLE4=NDRRP, Eiji Oue - A Jazz Symphony
TTITLE5=Jazz Sonata
TTITLE6=Can-Can
TTITLE7=Sonatina
TTITLE8=Death of machines
TTITLE9=Little Shimmy
EXTD=YEAR: 2004
EXTT0=
EXTT1=
EXTT2=
EXTT3=
EXTT4=
EXTT5=
EXTT6=
EXTT7=
EXTT8=
EXTT9=
PLAYORDER=
